<svg height="24" viewBox="0 0 24 24" width="24" xmlns="http://www.w3.org/2000/svg"><g fill="#515151" fill-rule="evenodd"><path d="M12 2.162c3.204 0 3.584.012 4.849.07 1.366.062 2.633.336 3.608 1.311s1.249 2.242 1.311 3.608c.058 1.265.07 1.645.07 4.849s-.012 3.584-.07 4.849c-.062 1.366-.336 2.633-1.311 3.608s-2.242 1.249-3.608 1.311c-1.265.058-1.645.07-4.849.07s-3.584-.012-4.849-.07c-1.366-.062-2.633-.336-3.608-1.311s-1.249-2.242-1.311-3.608c-.058-1.265-.07-1.645-.07-4.849s.012-3.584.07-4.849c.062-1.366.336-2.633 1.311-3.608s2.242-1.249 3.608-1.311c1.265-.058 1.645-.07 4.849-.07zM12 0C8.741 0 8.332.014 7.052.072c-1.95.089-3.663.567-5.038 1.942S.161 5.102.072 7.052C.014 8.332 0 8.741 0 12s.014 3.668.072 4.948c.089 1.95.567 3.663 1.942 5.038s3.088 1.853 5.038 1.942C8.332 23.986 8.741 24 12 24s3.668-.014 4.948-.072c1.95-.089 3.663-.567 5.038-1.942s1.853-3.088 1.942-5.038c.058-1.28.072-1.689.072-4.948s-.014-3.668-.072-4.948c-.089-1.95-.567-3.663-1.942-5.038S18.898.161 16.948.072C15.668.014 15.259 0 12 0z" fill-rule="nonzero"/><path d="M12 5.838a6.162 6.162 0 1 0 0 12.324 6.162 6.162 0 0 0 0-12.324zM12 16a4 4 0 1 1 0-8 4 4 0 0 1 0 8z" fill-rule="nonzero"/><circle cx="18.406" cy="5.594" r="1.44"/></g></svg>